<svg xmlns="http://www.w3.org/2000/svg">

  <!-- lock.locked -->
  <symbol id="lock_locked" viewBox="0 0 24 24">
    <path d="M18,10H6c-1.65,0-3,1.246-3,2.769v6.462C3,20.754,4.35,22,6,22h12c1.65,0,3-1.246,3-2.769v-6.462
      C21,11.246,19.65,10,18,10z M13,16.723V19h-2v-2.277c-0.727-0.423-1.169-1.28-0.938-2.224c0.176-0.72,0.781-1.301,1.506-1.453
      C12.861,12.774,14,13.754,14,15C14,15.738,13.595,16.376,13,16.723z"/>
    <path d="M12,2C8.686,2,6,4.686,6,8v7h3V8c0-1.657,1.343-3,3-3s3,1.343,3,3v7h3V8C18,4.686,15.314,2,12,2z"/>
  </symbol>

  <!-- lock.unlocked -->
  <symbol id="lock_unlocked" viewBox="0 0 24 24">
    <path d="M18,12H6c-1.65,0-3,1.246-3,2.769v6.462C3,22.754,4.35,24,6,24h12c1.65,0,3-1.246,3-2.769v-6.462
      C21,13.246,19.65,12,18,12z M13,18.723V21h-2v-2.277c-0.727-0.423-1.169-1.28-0.938-2.224c0.176-0.72,0.781-1.301,1.506-1.453
      C12.861,14.774,14,15.754,14,17C14,17.738,13.595,18.376,13,18.723z"/>
    <path d="M15,6v2h3V6c0-3.314-2.686-6-6-6S6,2.686,6,6v7h3V6c0-1.657,1.343-3,3-3S15,4.343,15,6z"/>
  </symbol>

  <!-- garage_door.closed -->
  <symbol id="garage_door_closed" viewBox="0 0 24 24">
    <rect x="4" y="20" width="16" height="4"/>
    <rect x="4" y="15" width="16" height="4"/>
    <rect x="4" y="10" width="16" height="4"/>
    <polygon points="24,8 12,-0.083 0,8 0,9 1,9 1,24 3,24 3,9 21,9 21,24 23,24 23,9 24,9 "/>
  </symbol>

  <!-- garage_door.open -->
  <symbol id="garage_door_open" viewBox="0 0 24 24">
    <rect x="4" y="10" width="16" height="2"/>
    <polygon points="24,8 12,-0.083 0,8 0,9 1,9 1,24 3,24 3,9 21,9 21,24 23,24 23,9 24,9 "/>
  </symbol>

</svg>